<svg xmlns="http://www.w3.org/2000/svg" viewBox="0 0 32.2 28.22"><defs><style>.cls-1{fill:#8deaff;}</style></defs><title>Asset 1</title><g id="Layer_2" data-name="Layer 2"><g id="Layer_1-2" data-name="Layer 1"><path class="cls-1" d="M16.12,5.74c.27-.55.46-.94.66-1.33A8.14,8.14,0,0,1,28.3,1.23a8.24,8.24,0,0,1,2.43,11.71,11.15,11.15,0,0,1-1,1.33c-4.48,4.64-9,9.26-13.53,14-.24-.21-.47-.38-.67-.58q-6.31-6.5-12.62-13C.54,12.21-.64,9.41.36,6A8.2,8.2,0,0,1,15.42,4.35C15.64,4.74,15.82,5.15,16.12,5.74Z"/></g></g></svg>